<?xml version="1.0" encoding="UTF-8" standalone="no"?>
<svg
   xmlns:dc="http://purl.org/dc/elements/1.1/"
   xmlns:cc="http://creativecommons.org/ns#"
   xmlns:rdf="http://www.w3.org/1999/02/22-rdf-syntax-ns#"
   xmlns:svg="http://www.w3.org/2000/svg"
   xmlns="http://www.w3.org/2000/svg"
   xmlns:sodipodi="http://sodipodi.sourceforge.net/DTD/sodipodi-0.dtd"
   xmlns:inkscape="http://www.inkscape.org/namespaces/inkscape"
   version="1.1"
   id="svg2"
   xml:space="preserve"
   width="144.67067"
   height="28.283068"
   viewBox="0 0 144.67067 28.283068"
   sodipodi:docname="Objet dynamique vectoriel.ai"><metadata
     id="metadata8"><rdf:RDF><cc:Work
         rdf:about=""><dc:format>image/svg+xml</dc:format><dc:type
           rdf:resource="http://purl.org/dc/dcmitype/StillImage" /></cc:Work></rdf:RDF></metadata><defs
     id="defs6"><clipPath
       clipPathUnits="userSpaceOnUse"
       id="clipPath18"><path
         d="M 0,21.212 H 108.503 V 0 H 0 Z"
         id="path16" /></clipPath></defs><sodipodi:namedview
     pagecolor="#ffffff"
     bordercolor="#666666"
     borderopacity="1"
     objecttolerance="10"
     gridtolerance="10"
     guidetolerance="10"
     inkscape:pageopacity="0"
     inkscape:pageshadow="2"
     inkscape:window-width="640"
     inkscape:window-height="480"
     id="namedview4" /><g
     id="g10"
     inkscape:groupmode="layer"
     inkscape:label="Objet dynamique vectoriel"
     transform="matrix(1.3333333,0,0,-1.3333333,0,28.283067)"><g
       id="g12"><g
         id="g14"
         clip-path="url(#clipPath18)"><g
           id="g20"
           transform="translate(53.7327,4.5084)"><path
             d="M 0,0 -0.249,10.056 H 0.514 L 0.604,6.409 H 6.011 L 6.03,5.645 H 0.623 L 0.744,0.766 H 7.131 L 7.149,0 Z M -0.293,11.853 H 6.84 L 6.858,11.087 H -0.274 Z M -7.73,-0.001 -7.737,0.281 -7.742,0.483 -8.024,11.85 h 0.763 L -6.986,0.766 h 5.685 l 0.019,-0.767 z M -16.169,0 -16.418,10.056 h 0.763 l 0.091,-3.647 h 5.406 l 0.019,-0.764 h -5.407 l 0.121,-4.879 h 6.387 L -9.02,0 Z m -0.294,11.853 h 7.134 l 0.018,-0.766 h -7.132 z M -17.699,1.441 c -1.018,-0.929 -2.332,-1.44 -3.704,-1.44 -3.159,0 -5.794,2.657 -5.874,5.923 -0.082,3.264 2.422,5.921 5.58,5.921 1.258,0 2.461,-0.414 3.482,-1.2 l 0.23,-0.176 -0.173,-0.223 -0.121,-0.157 -0.168,-0.217 -0.224,0.171 c -0.884,0.678 -1.923,1.036 -3.007,1.036 -2.738,0 -4.907,-2.313 -4.837,-5.155 0.071,-2.845 2.355,-5.157 5.093,-5.157 1.188,0 2.327,0.445 3.208,1.253 l 0.216,0.198 0.191,-0.233 0.13,-0.157 0.172,-0.209 z m -9.998,0 c -1.018,-0.929 -2.332,-1.44 -3.704,-1.44 -3.159,0 -5.794,2.657 -5.874,5.923 -0.082,3.264 2.421,5.921 5.58,5.921 1.258,0 2.461,-0.414 3.482,-1.2 l 0.23,-0.176 -0.173,-0.223 -0.121,-0.157 -0.168,-0.217 -0.224,0.171 c -0.884,0.678 -1.923,1.036 -3.007,1.036 -2.738,0 -4.907,-2.313 -4.837,-5.155 0.071,-2.845 2.355,-5.157 5.093,-5.157 1.188,0 2.327,0.445 3.208,1.253 l 0.216,0.198 0.191,-0.233 0.13,-0.157 0.172,-0.209 z M -37.975,0 -38.051,0.174 -39.77,4.075 h -4.278 l 0.289,0.767 h 3.652 l -2.525,5.732 -4.065,-10.4 L -46.766,0 h -0.826 l 0.153,0.391 4.412,11.286 0.067,0.174 h 0.593 L -42.291,11.677 -37.319,0.391 -37.147,0 Z m 50.742,16.657 h -65.418 c -0.53,0 -0.914,-0.375 -0.919,-0.894 l -0.162,-18.91 c -0.006,-0.682 0.632,-1.314 1.327,-1.314 h 65.418 c 0.528,0 0.914,0.375 0.918,0.894 l 0.163,18.91 c 0.006,0.681 -0.634,1.314 -1.327,1.314"
             style="fill:#ffffff;fill-opacity:1;fill-rule:nonzero;stroke:none"
             id="path22" /></g><g
           id="g24"
           transform="translate(12.5999,21.2125)"><path
             d="M 0,0 Z"
             style="fill:#191919;fill-opacity:1;fill-rule:nonzero;stroke:none"
             id="path26" /></g><g
           id="g28"
           transform="translate(107.5335,21.2125)"><path
             d="m 0,0 h -6.076 l -0.205,-7.937 h -4.448 c -0.513,0 -0.983,0.472 -0.97,0.973 l 0.154,5.991 C -11.531,-0.472 -12.002,0 -12.514,0 h -6.075 l -0.236,-9.043 -0.184,-7.045 -0.041,-1.586 -3.237,4.917 c -0.234,0.355 -0.209,0.788 0.082,1.001 0.563,0.413 1.059,1.001 1.485,1.763 0.562,1.006 0.851,2.023 0.878,3.068 0.05,1.996 -0.591,3.654 -1.93,4.961 C -23.108,-0.652 -24.843,0 -26.964,0 h -9.387 c -0.358,0 -0.65,-0.287 -0.657,-0.645 l -0.029,-1.521 c -0.033,-1.289 1.003,-2.94 2.292,-2.94 h 6.284 c 1.448,0 2.218,-0.885 2.196,-2.018 l -0.009,-0.153 c -0.017,-0.907 -0.739,-1.733 -2.187,-1.733 h -5.994 c -1.016,0 -1.847,-0.81 -1.873,-1.825 l -0.256,-9.404 c -0.014,-0.502 0.457,-0.973 0.969,-0.973 h 4.948 c 0.443,0 0.806,0.353 0.817,0.796 l 0.169,6.572 h 0.669 l 4.188,-6.877 c 0.181,-0.298 0.51,-0.491 0.834,-0.491 h 5.843 0.152 4.984 c 0.526,0 0.954,0.418 0.968,0.943 l 0.163,6.373 h 4.452 c 0.513,0 0.983,-0.472 0.97,-0.974 l -0.137,-5.369 c -0.012,-0.502 0.457,-0.973 0.97,-0.973 H 0.448 L 0.97,-0.973 C 0.982,-0.472 0.513,0 0,0"
             style="fill:#ffffff;fill-opacity:1;fill-rule:nonzero;stroke:none"
             id="path30" /></g></g></g></g></svg>
