<?xml version="1.0" encoding="UTF-8" standalone="no"?>
<svg
   xmlns:dc="http://purl.org/dc/elements/1.1/"
   xmlns:cc="http://creativecommons.org/ns#"
   xmlns:rdf="http://www.w3.org/1999/02/22-rdf-syntax-ns#"
   xmlns:svg="http://www.w3.org/2000/svg"
   xmlns="http://www.w3.org/2000/svg"
   viewBox="0 0 317.49066 71.87867"
   height="71.87867"
   width="317.49066"
   xml:space="preserve"
   id="svg2"
   version="1.1"><metadata
     id="metadata8"><rdf:RDF><cc:Work
         rdf:about=""><dc:format>image/svg+xml</dc:format><dc:type
           rdf:resource="http://purl.org/dc/dcmitype/StillImage" /></cc:Work></rdf:RDF></metadata><defs
     id="defs6"><clipPath
       id="clipPath18"
       clipPathUnits="userSpaceOnUse"><path
         id="path16"
         d="M 0,53.909 H 238.118 V 0 H 0 Z" /></clipPath></defs><g
     transform="matrix(1.3333333,0,0,-1.3333333,0,71.878667)"
     id="g10"><g
       id="g12"><g
         clip-path="url(#clipPath18)"
         id="g14"><g
           transform="translate(102.5389,21.274)"
           id="g20"><path
             id="path22"
             style="fill:#ffffff;fill-opacity:1;fill-rule:nonzero;stroke:none"
             d="M 0,0 -0.192,0.233 -0.409,0.034 c -0.883,-0.809 -2.025,-1.256 -3.216,-1.256 -2.745,0 -5.036,2.319 -5.106,5.171 -0.071,2.85 2.104,5.169 4.849,5.169 1.087,0 2.13,-0.359 3.015,-1.038 l 0.223,-0.172 0.169,0.217 0.122,0.158 0.173,0.223 -0.229,0.177 c -1.025,0.787 -2.232,1.203 -3.492,1.203 -3.167,0 -5.677,-2.663 -5.596,-5.937 0.081,-3.274 2.724,-5.939 5.891,-5.939 1.375,0 2.693,0.512 3.712,1.445 l 0.196,0.178 -0.172,0.209 z" /></g><g
           transform="translate(111.0384,31.1671)"
           id="g24"><path
             id="path26"
             style="fill:#ffffff;fill-opacity:1;fill-rule:nonzero;stroke:none"
             d="m 0,0 h -7.153 l 0.02,-0.768 h 7.152 z" /></g><g
           transform="translate(77.9896,30.9913)"
           id="g28"><path
             id="path30"
             style="fill:#ffffff;fill-opacity:1;fill-rule:nonzero;stroke:none"
             d="M 0,0 -0.077,0.174 H -0.671 L -0.739,0 -5.162,-11.316 -5.315,-11.708 h 0.829 l 0.068,0.174 4.076,10.428 2.532,-5.748 h -3.662 l -0.29,-0.768 h 4.29 l 1.723,-3.912 0.077,-0.174 h 0.829 l -0.172,0.392 z" /></g><g
           transform="translate(113.388,20.0509)"
           id="g32"><path
             id="path34"
             style="fill:#ffffff;fill-opacity:1;fill-rule:nonzero;stroke:none"
             d="m 0,0 -0.276,11.113 h -0.766 l 0.283,-11.396 0.005,-0.202 0.007,-0.284 H 5.718 L 5.699,0 Z" /></g><g
           transform="translate(92.515,21.274)"
           id="g36"><path
             id="path38"
             style="fill:#ffffff;fill-opacity:1;fill-rule:nonzero;stroke:none"
             d="M 0,0 -0.192,0.233 -0.409,0.034 c -0.883,-0.809 -2.025,-1.256 -3.216,-1.256 -2.745,0 -5.036,2.319 -5.106,5.171 -0.071,2.85 2.104,5.169 4.849,5.169 1.087,0 2.13,-0.359 3.015,-1.038 l 0.223,-0.172 0.169,0.217 0.122,0.158 0.173,0.223 -0.229,0.177 c -1.025,0.787 -2.232,1.203 -3.492,1.203 -3.167,0 -5.677,-2.663 -5.596,-5.937 0.081,-3.274 2.724,-5.939 5.891,-5.939 1.375,0 2.693,0.512 3.712,1.445 l 0.196,0.178 -0.172,0.209 z" /></g><g
           transform="translate(104.9266,20.0509)"
           id="g40"><path
             id="path42"
             style="fill:#ffffff;fill-opacity:1;fill-rule:nonzero;stroke:none"
             d="M 0,0 -0.122,4.892 H 5.3 L 5.28,5.659 h -5.421 l -0.09,3.656 h -0.765 l 0.25,-10.083 H 6.423 L 6.404,0 Z" /></g><g
           transform="translate(173.763,14.7408)"
           id="g44"><path
             id="path46"
             style="fill:#ffffff;fill-opacity:1;fill-rule:nonzero;stroke:none"
             d="m 0,0 h -6.09 c -0.514,0 -0.985,0.473 -0.972,0.976 l 0.137,5.384 c 0.013,0.503 -0.458,0.975 -0.971,0.975 h -4.465 L -12.524,0.946 C -12.538,0.42 -12.969,0 -13.495,0 h -4.997 -0.153 -5.859 c -0.324,0 -0.653,0.194 -0.836,0.493 l -4.198,6.895 h -0.671 l -0.17,-6.589 C -30.39,0.354 -30.754,0 -31.198,0 h -4.961 c -0.514,0 -0.985,0.473 -0.972,0.976 l 0.258,9.429 c 0.025,1.018 0.858,1.829 1.877,1.829 h 6.01 c 1.452,0 2.175,0.829 2.192,1.739 l 0.01,0.153 c 0.021,1.135 -0.75,2.022 -2.202,2.022 h -6.3 c -1.293,0 -2.332,1.656 -2.299,2.949 l 0.029,1.525 c 0.007,0.359 0.3,0.647 0.66,0.647 h 9.412 c 2.126,0 3.865,-0.654 5.205,-1.97 1.342,-1.31 1.984,-2.972 1.935,-4.973 -0.027,-1.048 -0.317,-2.068 -0.881,-3.076 -0.426,-0.765 -0.924,-1.355 -1.489,-1.769 -0.292,-0.213 -0.316,-0.647 -0.082,-1.003 l 3.246,-4.931 0.041,1.591 0.185,7.063 0.236,9.068 h 6.091 c 0.514,0 0.985,-0.474 0.972,-0.977 l -0.155,-6.006 c -0.012,-0.503 0.458,-0.975 0.972,-0.975 h 4.46 l 0.206,7.958 h 6.092 c 0.513,0 0.985,-0.474 0.972,-0.977 z m -39.422,0.944 c -0.005,-0.521 -0.391,-0.897 -0.922,-0.897 h -65.59 c -0.695,0 -1.337,0.634 -1.331,1.317 l 0.163,18.961 c 0.005,0.52 0.391,0.896 0.921,0.896 h 65.591 c 0.695,0 1.336,-0.634 1.33,-1.317 z M -54.34,39.168 v 0 h -119.404 c 0,0 0.506,-10.295 0,-23.29 -0.512,-13.175 9.222,-15.132 9.222,-15.132 0,0 50.635,-15.366 109.491,-15.485 -10e-4,-10e-4 -10e-4,-0.002 -10e-4,-0.002 0.11,0 0.22,10e-4 0.33,10e-4 0.116,0 0.23,-10e-4 0.346,-10e-4 -10e-4,0 -10e-4,10e-4 -0.002,0.002 56.489,0.124 109.492,15.485 109.492,15.485 0,0 9.22,2.128 9.22,15.132 v 23.29 z" /></g><g
           transform="translate(121.1385,20.0509)"
           id="g48"><path
             id="path50"
             style="fill:#ffffff;fill-opacity:1;fill-rule:nonzero;stroke:none"
             d="m 0,0 -0.121,4.892 h 5.42 L 5.281,5.659 H -0.14 l -0.091,3.656 h -0.765 l 0.25,-10.083 H 6.422 L 6.403,0 Z" /></g><g
           transform="translate(127.2494,31.1671)"
           id="g52"><path
             id="path54"
             style="fill:#ffffff;fill-opacity:1;fill-rule:nonzero;stroke:none"
             d="m 0,0 h -7.151 l 0.019,-0.768 H 0.02 Z" /></g></g></g></g></svg>