<?xml version="1.0" encoding="utf-8"?>
<!-- Generator: Adobe Illustrator 25.2.0, SVG Export Plug-In . SVG Version: 6.00 Build 0)  -->
<svg version="1.1" id="Layer_1" xmlns="http://www.w3.org/2000/svg" xmlns:xlink="http://www.w3.org/1999/xlink" x="0px" y="0px"
	 viewBox="0 0 1000 1000" style="enable-background:new 0 0 1000 1000;" xml:space="preserve">
<style type="text/css">
	.st0{opacity:0.75;fill:#FFFFFF;}
	.st1{fill:#FFFFFF;}
	.st2{fill:#F2F2F2;}
	.st3{opacity:0.75;}
</style>
<g>
	<g>
		<rect x="210.36" y="704.56" class="st0" width="30.12" height="3.54"/>
		<path class="st1" d="M567.37,688.61v11.92H432.24v-11.92H144.73v5.3c0,7.72,2.96,15.43,8.84,21.31
			c5.87,5.87,13.59,8.84,21.31,8.84h649.85c7.72,0,15.44-2.97,21.34-8.84c5.84-5.88,8.81-13.59,8.81-21.31v-5.3H567.37z
			 M225.43,708.1h-15.07v-3.54h15.07V708.1z"/>
		<path class="st0" d="M783.65,310.44c-3.75-3.72-8.66-5.6-13.57-5.6H229.52c-4.9,0-9.81,1.88-13.56,5.6
			c-3.72,3.75-5.6,8.66-5.6,13.57v345.45c0,4.9,1.88,9.83,5.6,13.55c3.75,3.76,8.66,5.6,13.56,5.6h540.57
			c4.91,0,9.81-1.84,13.57-5.6c3.72-3.73,5.6-8.66,5.6-13.55V324C789.25,319.09,787.37,314.19,783.65,310.44z M499.8,313.41
			c3.6,0,6.51,2.87,6.51,6.48c0,3.6-2.91,6.54-6.51,6.54c-3.6,0-6.51-2.94-6.51-6.54C493.29,316.28,496.2,313.41,499.8,313.41z
			 M759.13,658.49H240.48V334.96h518.66V658.49z"/>
		<g>
			<rect x="240.48" y="334.96" class="st2" width="518.66" height="35.75"/>
			<g>
				<path class="st1" d="M269.41,352.85c0,2.87-2.33,5.21-5.23,5.21c-2.88,0-5.21-2.33-5.21-5.21c0-2.91,2.33-5.24,5.21-5.24
					C267.08,347.61,269.41,349.94,269.41,352.85z"/>
				<path class="st1" d="M293.08,352.85c0,2.87-2.33,5.21-5.21,5.21c-2.87,0-5.24-2.33-5.24-5.21c0-2.91,2.36-5.24,5.24-5.24
					C290.76,347.61,293.08,349.94,293.08,352.85z"/>
				<path class="st1" d="M316.79,352.85c0,2.87-2.33,5.21-5.24,5.21c-2.87,0-5.21-2.33-5.21-5.21c0-2.91,2.33-5.24,5.21-5.24
					C314.46,347.61,316.79,349.94,316.79,352.85z"/>
			</g>
			<path class="st1" d="M731.55,354.15c0,3.09-2.54,5.63-5.63,5.63H349.99c-3.09,0-5.63-2.54-5.63-5.63v-2.64
				c0-3.12,2.54-5.63,5.63-5.63h375.93c3.09,0,5.63,2.51,5.63,5.63V354.15z"/>
		</g>
	</g>
	<g id="g4335" transform="matrix(0.95238113,0,0,0.95238113,5.0187383,-12.171928)" class="st3">
		<path id="path4199" class="st1" d="M472.8,452.61c-6.16,0-11.09,5.02-11.09,11.06v27.16h114.67v-27.16
			c0-6.04-5.08-11.06-11.24-11.06H472.8z"/>
		<path id="path5629-3" class="st1" d="M462,500.39v38.1h-29.14c-13.51,0-17.24,11.44-9.37,19.21l84.46,91.29
			c6.49,6.49,18.35,4.93,23.28,0l84.31-91.29c2.95-2.91,4.27-6.38,4.06-9.53c-0.35-5.24-4.98-9.51-13.42-9.68h-29.51v-38.1H462z"/>
	</g>
</g>
</svg>
