<?xml version="1.0" encoding="UTF-8" standalone="no"?>
<svg
   xmlns:dc="http://purl.org/dc/elements/1.1/"
   xmlns:cc="http://creativecommons.org/ns#"
   xmlns:rdf="http://www.w3.org/1999/02/22-rdf-syntax-ns#"
   xmlns:svg="http://www.w3.org/2000/svg"
   xmlns="http://www.w3.org/2000/svg"
   xmlns:sodipodi="http://sodipodi.sourceforge.net/DTD/sodipodi-0.dtd"
   xmlns:inkscape="http://www.inkscape.org/namespaces/inkscape"
   version="1.1"
   id="svg2"
   xml:space="preserve"
   width="279.91467"
   height="292.82001"
   viewBox="0 0 279.91467 292.82001"
   sodipodi:docname="pictoLoupel.ai"><metadata
     id="metadata8"><rdf:RDF><cc:Work
         rdf:about=""><dc:format>image/svg+xml</dc:format><dc:type
           rdf:resource="http://purl.org/dc/dcmitype/StillImage" /></cc:Work></rdf:RDF></metadata><defs
     id="defs6"><clipPath
       clipPathUnits="userSpaceOnUse"
       id="clipPath18"><path
         d="M 0,219.615 H 209.936 V 0 H 0 Z"
         id="path16" /></clipPath><clipPath
       clipPathUnits="userSpaceOnUse"
       id="clipPath26"><path
         d="M 0,219.615 H 155.947 V 56.4636 H 0 Z"
         id="path24" /></clipPath><clipPath
       clipPathUnits="userSpaceOnUse"
       id="clipPath42"><path
         d="M 21.8864,196.611 H 80.604 V 112.352 H 21.8864 Z"
         id="path40" /></clipPath><clipPath
       clipPathUnits="userSpaceOnUse"
       id="clipPath46"><path
         d="M 47.031,196.611 H 80.604 V 177.794 H 47.031 Z"
         id="path44" /></clipPath><clipPath
       clipPathUnits="userSpaceOnUse"
       id="clipPath50"><path
         d="M 21.8864,177.183 H 44.4075 V 112.352 H 21.8864 Z"
         id="path48" /></clipPath><clipPath
       clipPathUnits="userSpaceOnUse"
       id="clipPath86"><path
         d="m 157.508,72.1002 h 48.97 V 7.34862 h -48.97 z"
         id="path84" /></clipPath><clipPath
       clipPathUnits="userSpaceOnUse"
       id="clipPath102"><path
         d="m 135.364,78.0026 h 74.572 V 0 h -74.572 z"
         id="path100" /></clipPath></defs><sodipodi:namedview
     pagecolor="#ffffff"
     bordercolor="#666666"
     borderopacity="1"
     objecttolerance="10"
     gridtolerance="10"
     guidetolerance="10"
     inkscape:pageopacity="0"
     inkscape:pageshadow="2"
     inkscape:window-width="640"
     inkscape:window-height="480"
     id="namedview4" /><g
     id="g10"
     inkscape:groupmode="layer"
     inkscape:label="pictoLoupel"
     transform="matrix(1.3333333,0,0,-1.3333333,0,292.82)"><g
       id="g12"><g
         id="g14"
         clip-path="url(#clipPath18)"><g
           id="g20"><g
             id="g22" /><g
             id="g34"><g
               clip-path="url(#clipPath26)"
               id="g32"><g
                 transform="translate(77.9736,71.1257)"
                 id="g30"><path
                   d="m 0,0 c -35.327,0 -63.965,29.954 -63.965,66.921 0,36.945 28.641,66.913 63.965,66.913 35.32,0 63.968,-29.968 63.968,-66.913 C 63.968,29.954 35.32,0 0,0 M 73.11,3.035 60.822,15.899 C 71.545,29.872 77.975,47.605 77.974,66.921 77.977,111.962 43.066,148.489 0,148.489 c -43.063,0 -77.974,-36.527 -77.974,-81.568 0,-45.056 34.911,-81.569 77.974,-81.583 18.462,0.006 35.415,6.735 48.771,17.955 l 3.95,-4.137 6.029,-6.274 2.321,-2.446 8.786,9.193"
                   style="fill:#ffffff;fill-opacity:1;fill-rule:nonzero;stroke:none"
                   id="path28" /></g></g></g></g><g
           id="g36"><g
             id="g38" /><g
             id="g78"><g
               clip-path="url(#clipPath42)"
               opacity="0.5"
               id="g76"><g
                 id="g62"><g
                   id="g52" /><g
                   id="g60"><g
                     clip-path="url(#clipPath46)"
                     id="g58"><g
                       transform="translate(79.6543,193.9783)"
                       id="g56"><path
                         d="m 0,0 c -1.088,1.687 -2.958,2.744 -5.019,2.623 -8.831,-0.56 -17.173,-3.162 -24.801,-7.791 -2.684,-1.645 -3.603,-5.269 -2.044,-8.083 1.566,-2.793 5.032,-3.786 7.709,-2.127 6.083,3.672 12.738,5.757 19.801,6.204 3.101,0.17 5.486,2.97 5.293,6.21 C 0.901,-1.836 0.542,-0.83 0,0"
                         style="fill:#ffffff;fill-opacity:1;fill-rule:nonzero;stroke:none"
                         id="path54" /></g></g></g></g><g
                 id="g74"><g
                   id="g64" /><g
                   id="g72"><g
                     clip-path="url(#clipPath50)"
                     id="g70"><g
                       transform="translate(43.4395,174.5735)"
                       id="g68"><path
                         d="m 0,0 c -0.298,0.475 -0.688,0.907 -1.122,1.283 -2.422,2.071 -5.971,1.666 -7.933,-0.858 -5.76,-7.402 -9.725,-16.285 -11.474,-25.736 -2.07,-11.223 -0.989,-22.709 3.125,-33.244 1.199,-3.035 4.496,-4.46 7.373,-3.219 2.891,1.227 4.263,4.665 3.081,7.699 -3.28,8.395 -4.131,17.569 -2.467,26.524 1.365,7.543 4.531,14.633 9.132,20.532 C 1.312,-4.963 1.355,-2.077 0,0"
                         style="fill:#ffffff;fill-opacity:1;fill-rule:nonzero;stroke:none"
                         id="path66" /></g></g></g></g></g></g></g><g
           id="g80"><g
             id="g82" /><g
             id="g94"><g
               clip-path="url(#clipPath86)"
               id="g92"><g
                 transform="translate(202.4116,8.072)"
                 id="g90"><path
                   d="m 0,0 c -0.471,-0.482 -1.084,-0.724 -1.691,-0.724 -0.613,0 -1.224,0.242 -1.691,0.731 -0.929,0.978 -0.929,2.553 0,3.523 1.728,1.801 2.677,4.219 2.677,6.779 0.003,2.545 -0.945,4.941 -2.67,6.742 L -44.904,60.49 -41.532,64.028 0,20.582 C 2.629,17.838 4.07,14.187 4.066,10.301 4.066,6.402 2.623,2.743 0,0"
                   style="fill:#606060;fill-opacity:1;fill-rule:nonzero;stroke:none"
                   id="path88" /></g></g></g></g><g
           id="g96"><g
             id="g98" /><g
             id="g110"><g
               clip-path="url(#clipPath102)"
               opacity="0.75"
               id="g108"><g
                 transform="translate(202.4116,8.072)"
                 id="g106"><path
                   d="m 0,0 c -0.471,-0.482 -1.084,-0.724 -1.691,-0.724 -0.613,0 -1.223,0.242 -1.691,0.731 -0.929,0.978 -0.929,2.553 0,3.523 1.728,1.801 2.677,4.219 2.677,6.779 0.003,2.545 -0.945,4.941 -2.67,6.742 L -44.903,60.49 -41.532,64.028 0,20.582 C 2.629,17.838 4.07,14.187 4.066,10.301 4.066,6.402 2.623,2.744 0,0 m 2.468,22.727 -41.525,43.439 -1.823,1.907 c -1.094,1.156 -2.599,1.858 -4.266,1.858 -1.678,0 -3.182,-0.702 -4.273,-1.844 l -1.909,-1.998 -12.039,-12.6 8.786,9.194 -10.697,-11.201 c -1.092,-1.127 -1.769,-2.708 -1.769,-4.459 0,-1.737 0.677,-3.332 1.769,-4.46 l 1.83,-1.914 41.528,-43.439 c 3.121,-3.269 7.431,-5.282 12.196,-5.282 4.764,0 9.078,2.013 12.192,5.268 3.125,3.268 5.056,7.791 5.056,12.776 0.007,4.977 -1.931,9.5 -5.056,12.755"
                   style="fill:#ffffff;fill-opacity:1;fill-rule:nonzero;stroke:none"
                   id="path104" /></g></g></g></g></g></g></g></svg>
