<?xml version="1.0" encoding="UTF-8" standalone="no"?>
<svg
   xmlns:dc="http://purl.org/dc/elements/1.1/"
   xmlns:cc="http://creativecommons.org/ns#"
   xmlns:rdf="http://www.w3.org/1999/02/22-rdf-syntax-ns#"
   xmlns:svg="http://www.w3.org/2000/svg"
   xmlns="http://www.w3.org/2000/svg"
   xmlns:sodipodi="http://sodipodi.sourceforge.net/DTD/sodipodi-0.dtd"
   xmlns:inkscape="http://www.inkscape.org/namespaces/inkscape"
   version="1.1"
   id="svg2"
   xml:space="preserve"
   width="59.095066"
   height="57.625599"
   viewBox="0 0 59.095066 57.625599"
   sodipodi:docname="poucentPicto.ai"><metadata
     id="metadata8"><rdf:RDF><cc:Work
         rdf:about=""><dc:format>image/svg+xml</dc:format><dc:type
           rdf:resource="http://purl.org/dc/dcmitype/StillImage" /></cc:Work></rdf:RDF></metadata><defs
     id="defs6"><linearGradient
       x1="0"
       y1="0"
       x2="1"
       y2="0"
       gradientUnits="userSpaceOnUse"
       gradientTransform="matrix(-4.9720821,-43.754326,43.754326,-4.9720821,24.646717,43.486793)"
       spreadMethod="pad"
       id="linearGradient28"><stop
         style="stop-opacity:1;stop-color:#1589c8"
         offset="0"
         id="stop24" /><stop
         style="stop-opacity:1;stop-color:#1589c8"
         offset="1"
         id="stop26" /></linearGradient></defs><sodipodi:namedview
     pagecolor="#ffffff"
     bordercolor="#666666"
     borderopacity="1"
     objecttolerance="10"
     gridtolerance="10"
     guidetolerance="10"
     inkscape:pageopacity="0"
     inkscape:pageshadow="2"
     inkscape:window-width="640"
     inkscape:window-height="480"
     id="namedview4" /><g
     id="g10"
     inkscape:groupmode="layer"
     inkscape:label="poucentPicto"
     transform="matrix(1.3333333,0,0,-1.3333333,0,57.6256)"><g
       id="g12"><g
         id="g14"><g
           id="g20"><g
             id="g22"><path
               d="m 26.961,43.219 c -1.031,-0.007 -3.93,-2.348 -4.818,-2.35 v 0 c -0.446,-10e-4 -1.394,0.586 -2.357,1.173 v 0 c -1.042,0.634 -2.103,1.269 -2.572,1.162 v 0 c -0.902,-0.208 -2.59,-3.839 -3.424,-4.242 v 0 c -0.392,-0.189 -1.456,-0.09 -2.553,0.01 v 0 C 9.995,39.084 8.714,39.197 8.329,38.89 v 0 C 7.602,38.311 7.658,34.348 7.081,33.622 v 0 C 6.505,32.898 2.576,32.029 2.174,31.194 v 0 c -0.399,-0.835 1.375,-4.423 1.17,-5.326 v 0 C 3.138,24.964 -0.001,22.501 0,21.574 v 0 C 0.002,20.648 3.158,18.2 3.366,17.297 v 0 C 3.573,16.394 1.796,12.811 2.2,11.977 v 0 c 0.402,-0.834 4.338,-1.696 4.917,-2.42 v 0 C 7.695,8.834 7.652,4.841 8.376,4.265 v 0 C 8.761,3.959 10.035,4.086 11.272,4.214 v 0 c 1.096,0.112 2.163,0.225 2.556,0.037 v 0 C 14.663,3.85 16.337,0.217 17.24,0.012 v 0 c 0.905,-0.205 4.013,2.337 4.94,2.338 v 0 c 0.444,0 1.392,-0.587 2.355,-1.174 v 0 c 1.042,-0.633 2.103,-1.268 2.572,-1.16 v 0 c 0.904,0.207 2.591,3.839 3.426,4.241 v 0 c 0.39,0.188 1.455,0.089 2.551,-0.01 v 0 c 1.242,-0.112 2.524,-0.225 2.909,0.083 v 0 c 0.726,0.578 0.676,4.585 1.254,5.31 v 0 c 0.575,0.724 4.5,1.551 4.901,2.386 v 0 c 0.4,0.835 -1.375,4.422 -1.17,5.326 v 0 c 0.204,0.903 3.345,3.367 3.343,4.293 v 0 c -10e-4,0.926 -3.157,3.375 -3.365,4.278 v 0 c -0.207,0.902 1.571,4.485 1.167,5.32 v 0 c -0.404,0.833 -4.339,1.695 -4.918,2.419 v 0 c -0.579,0.723 -0.534,4.717 -1.26,5.293 v 0 c -0.385,0.305 -1.659,0.178 -2.897,0.05 v 0 C 31.953,38.893 30.886,38.78 30.494,38.968 v 0 c -0.834,0.402 -2.508,4.035 -3.413,4.239 v 0 c -0.033,0.008 -0.069,0.011 -0.108,0.012 v 0 z M 14.716,21.59 c -2.912,0.031 -5.18,2.536 -5.119,5.602 v 0 c 0.06,3.065 2.425,5.483 5.336,5.452 v 0 C 15.66,32.636 16.42,32.515 17.05,32.23 v 0 c 1.89,-0.857 3.139,-2.856 3.093,-5.154 v 0 C 20.081,24.029 17.657,21.59 14.771,21.59 v 0 c -0.018,0 -0.036,0 -0.055,0 M 14.11,12.83 26.092,31.072 c 0.346,0.468 1.092,0.65 1.802,0.619 v 0 c 1.182,-0.054 2.32,-0.735 1.609,-1.828 v 0 L 17.659,11.692 c -0.405,-0.547 -1.006,-0.764 -1.608,-0.764 v 0 c -1.298,-0.001 -2.601,1.01 -1.941,1.902 m 15.668,-2.255 c -2.909,0.031 -5.222,2.541 -5.161,5.606 v 0 c 0.061,3.066 2.468,5.478 5.379,5.448 v 0 c 1.091,-0.013 2.122,-0.383 2.96,-0.987 v 0 c 1.399,-1.005 2.245,-2.662 2.207,-4.578 v 0 C 35.102,13.018 32.72,10.575 29.834,10.575 v 0 c -0.019,0 -0.037,0 -0.056,0 M 12.664,27.146 c -0.026,-1.313 0.907,-2.351 2.154,-2.365 v 0 c 1.248,-0.014 2.316,1.017 2.342,2.331 v 0 c 0.016,0.82 -0.352,1.536 -0.944,1.967 v 0 c -0.356,0.257 -0.827,0.404 -1.296,0.407 v 0 c -0.008,0 -0.017,0 -0.025,0 v 0 c -1.236,0 -2.206,-1.035 -2.231,-2.34 M 27.685,16.135 c -0.027,-1.314 0.902,-2.393 2.149,-2.407 v 0 c 1.247,-0.014 2.363,1.055 2.39,2.368 v 0 c 0.019,0.985 -0.554,1.777 -1.358,2.145 v 0 c -0.269,0.122 -0.571,0.226 -0.882,0.23 v 0 c -0.008,0 -0.017,0 -0.025,0 v 0 c -1.236,0 -2.248,-1.03 -2.274,-2.336"
               style="fill:url(#linearGradient28);stroke:none"
               id="path30" /></g></g></g></g></g></svg>
